HIERARCHY
ROOT Spine
{
    OFFSET 0.0 0.0 -0.0
    CHANNELS 6 Xposition Yposition Zposition Zrotation Xrotation Yrotation
    JOINT ShoulderCenter
    {
        OFFSET 0.0 31.03716468811035 0.0
        CHANNELS 3 Zrotation Xrotation Yrotation
        JOINT LeftShoulder
        {
            OFFSET 19.379974365234375 0.0 0.0
            CHANNELS 3 Zrotation Xrotation Yrotation
            JOINT LeftElbow
            {
                OFFSET 26.164424896240234 0.0 0.0
                CHANNELS 3 Zrotation Xrotation Yrotation
                JOINT LeftHand
                {
                    OFFSET 33.40778350830078 0.0 0.0
                    CHANNELS 3 Zrotation Xrotation Yrotation
                    End Site
                    {
                        OFFSET 13.363115310668945 0.0 0.0
                    }
                }
            }
        }
        JOINT RightShoulder
        {
            OFFSET -19.379974365234375 0.0 0.0
            CHANNELS 3 Zrotation Xrotation Yrotation
            JOINT RightElbow
            {
                OFFSET -26.164424896240234 0.0 0.0
                CHANNELS 3 Zrotation Xrotation Yrotation
                JOINT RightHand
                {
                    OFFSET -33.40778350830078 0.0 0.0
                    CHANNELS 3 Zrotation Xrotation Yrotation
                    End Site
                    {
                        OFFSET -13.363115310668945 0.0 0.0
                    }
                }
            }
        }
        End Site
        {
            OFFSET 0.0 12.414865493774414 0.0
        }
    }
    JOINT LeftHip
    {
        OFFSET 15.9434285402264 -15.9434285402264 0.0
        CHANNELS 3 Zrotation Xrotation Yrotation
        JOINT LeftKnee
        {
            OFFSET 0.0 -41.68049621582031 0.0
            CHANNELS 3 Zrotation Xrotation Yrotation
            JOINT LeftFoot
            {
                OFFSET 0.0 -46.9678955078125 0.0
                CHANNELS 3 Zrotation Xrotation Yrotation
                End Site
                {
                    OFFSET 0.0 0.0 18.787158966064453
                }
            }
        }
    }
    JOINT RightHip
    {
        OFFSET -15.9434285402264 -15.9434285402264 0.0
        CHANNELS 3 Zrotation Xrotation Yrotation
        JOINT RightKnee
        {
            OFFSET 0.0 -41.68049621582031 0.0
            CHANNELS 3 Zrotation Xrotation Yrotation
            JOINT RightFoot
            {
                OFFSET 0.0 -46.9678955078125 0.0
                CHANNELS 3 Zrotation Xrotation Yrotation
                End Site
                {
                    OFFSET 0.0 0.0 18.787158966064453
                }
            }
        }
    }
}
MOTION
Frames: 4
Frame Time: 0.03333333333333333
-2.6000001430511475 15.80000114440918 31.299999237060547 -2.5774912288757434 -1.6559378305776633 -4.965311369802415 -1.8477213888286045e-08 -1.832170793328986e-07 6.607084845472294 90.36887914313112 -10.268037163694473 166.8531069290189 8.591585538415713e-07 -3.596305732919748e-07 45.744913074310716 -7.951386703658791e-16 2.2069531490250793e-32 -3.1805546814635164e-15 -91.63450578534527 0.6599171616097639 -159.12588162113738 -7.795692688697448e-07 2.4686932558543682e-06 -48.14597166385918 2.3854160110976376e-15 -1.5902773407317584e-15 3.310429723537619e-32 6.830819227102076 0.8505157969838925 -26.45297727246874 1.5813828536919705 7.724178555367197 -21.521313236364108 7.951386703658792e-16 -4.827710013492361e-32 -6.957463365701443e-15 -17.59935627214168 2.270054412678694 76.878285063354 -13.240194321514075 -3.255815783240159 -127.61557826119305 1.5902773407317588e-15 7.951386703658794e-16 -1.5902773407317588e-15
-2.6000001430511475 15.80000114440918 31.299999237060547 -2.5774914566604257 -1.4720298980689503 -4.317228736846134 1.9299388188439884e-08 -1.8294031625611603e-07 6.117005553143063 90.48286058474784 -11.606216276011676 166.57696124080954 -1.4864726458889023e-06 3.163095044524569e-06 47.14386147364048 1.5902773407317582e-15 -3.1805546814635164e-15 4.4139062980501586e-32 -91.81163528188985 -1.189751591638912 -158.37130253773532 -1.4060199681608528e-06 1.9037147148425819e-06 -50.19747476351997 -9.54166404439055e-15 0.0 0.0 6.873385982348214 0.3148619170715496 -25.17753353251305 1.7031159408673615 7.9091853756463175 -22.433026570223873 0.0 0.0 -1.9878466759146984e-15 -17.440703049588564 2.43885875882198 75.79358547862041 -13.21912172286139 -3.3762971541975464 -124.44389155742677 -1.5902773407317582e-15 -1.6552148617688095e-32 1.1927080055488186e-15
-2.6000001430511475 15.80000114440918 31.200000762939453 -2.577491403283183 -1.104133978100064 -4.627073485790785 3.5337185168065073e-07 1.8301551272133488e-07 6.421530284441313 90.60939136775647 -12.821425837725863 166.47956238680828 -3.3339764589295904e-06 1.0167190121444285e-06 49.28469004329123 -4.770832022195275e-15 3.1805546814635168e-15 1.3241718894150476e-31 -91.52904309869824 -2.4850416718015027 -158.00859448947807 -8.902999531250749e-07 4.6684086694776844e-07 -52.238704726306494 4.770832022195275e-15 3.1805546814635168e-15 3.1805546814635168e-15 6.90114431334358 -0.012108231195595068 -24.825959292808033 1.7525010742652578 7.777698367115602 -22.155833685396058 -9.655420026984722e-33 1.5902773407317582e-15 6.957463365701442e-16 -17.72149368402279 1.972447341729706 77.09166006836371 -13.108568141572372 -3.2646555752831956 -127.81063526959768 1.5902773407317588e-15 -7.951386703658794e-16 3.1805546814635176e-15
-2.6000001430511475 15.899999618530273 31.099998474121094 -2.5774912544774766 -0.5521147539977024 -4.62921973723202 -1.6206580723221565e-07 -1.3630516550551928e-08 6.577235937225317 90.94994282840089 -14.556366035279032 166.76898303812055 1.7149956634761492e-07 1.4244524716539771e-06 51.31027234397787 3.975693351829395e-15 1.1034765745125397e-31 3.1805546814635164e-15 -91.39483131516695 -4.4782766605403825 -157.70948155546589 1.8133423361376944e-06 -4.017522522231987e-06 -53.99156972593716 4.770832022195275e-15 3.1805546814635168e-15 -1.3241718894150476e-31 7.094712367802295 -0.6849272540479284 -24.97800188379078 1.5340216085096896 7.836630615619975 -22.626486525188717 -1.5902773407317582e-15 4.275971726236091e-32 -3.0811623476677814e-15 -17.68291438647182 1.5835251533604504 77.60200832040007 -13.33196280327226 -3.009305195861696 -131.74664772527618 0.0 0.0 -3.578124016646457e-15
